<svg width="48" height="48" viewBox="0 0 48 48" fill="none" xmlns="http://www.w3.org/2000/svg">
<path d="M24 45.5C12.14 45.5 2.5 35.86 2.5 24C2.5 12.14 12.14 2.5 24 2.5C35.86 2.5 45.5 12.14 45.5 24C45.5 35.86 35.86 45.5 24 45.5ZM24 5.5C13.8 5.5 5.5 13.8 5.5 24C5.5 34.2 13.8 42.5 24 42.5C34.2 42.5 42.5 34.2 42.5 24C42.5 13.8 34.2 5.5 24 5.5Z" fill="#096D49"/>
<path d="M21.1609 31.1602C20.7609 31.1602 20.3809 31.0002 20.1009 30.7202L14.4409 25.0602C13.8609 24.4802 13.8609 23.5202 14.4409 22.9402C15.0209 22.3602 15.9809 22.3602 16.5609 22.9402L21.1609 27.5402L31.4409 17.2602C32.0209 16.6802 32.9809 16.6802 33.5609 17.2602C34.1409 17.8402 34.1409 18.8002 33.5609 19.3802L22.2209 30.7202C21.9409 31.0002 21.5609 31.1602 21.1609 31.1602Z" fill="#096D49"/>
</svg>
