<svg width="30" height="30" viewBox="0 0 30 30" fill="none" xmlns="http://www.w3.org/2000/svg">
<path d="M22.266 29.3332C20.7594 29.3332 19.1727 28.9732 17.5327 28.2798C15.9327 27.5998 14.3193 26.6665 12.746 25.5332C11.186 24.3865 9.67935 23.1065 8.25268 21.7065C6.83935 20.2798 5.55935 18.7732 4.42602 17.2265C3.27935 15.6265 2.35935 14.0265 1.70602 12.4798C1.01268 10.8265 0.666016 9.2265 0.666016 7.71984C0.666016 6.67984 0.852682 5.69317 1.21268 4.77317C1.58602 3.8265 2.18602 2.9465 2.99935 2.1865C4.02602 1.17317 5.19935 0.666504 6.45268 0.666504C6.97268 0.666504 7.50602 0.786504 7.95935 0.999837C8.47935 1.23984 8.91935 1.59984 9.23935 2.07984L12.3327 6.43984C12.6127 6.8265 12.826 7.19984 12.9727 7.57317C13.146 7.97317 13.2393 8.37317 13.2393 8.75984C13.2393 9.2665 13.0927 9.75984 12.8127 10.2265C12.6127 10.5865 12.306 10.9732 11.9193 11.3598L11.0127 12.3065C11.026 12.3465 11.0393 12.3732 11.0527 12.3998C11.2127 12.6798 11.5327 13.1598 12.146 13.8798C12.7993 14.6265 13.4127 15.3065 14.026 15.9332C14.8127 16.7065 15.466 17.3198 16.0793 17.8265C16.8393 18.4665 17.3327 18.7865 17.626 18.9332L17.5993 18.9998L18.5727 18.0398C18.986 17.6265 19.386 17.3198 19.7727 17.1198C20.506 16.6665 21.4394 16.5865 22.3727 16.9732C22.7194 17.1198 23.0927 17.3198 23.4927 17.5998L27.9194 20.7465C28.4127 21.0798 28.7727 21.5065 28.986 22.0132C29.186 22.5198 29.2793 22.9865 29.2793 23.4532C29.2793 24.0932 29.1327 24.7332 28.8527 25.3332C28.5727 25.9332 28.226 26.4532 27.786 26.9332C27.026 27.7732 26.1994 28.3732 25.2394 28.7598C24.3194 29.1332 23.3194 29.3332 22.266 29.3332ZM6.45268 2.6665C5.71935 2.6665 5.03935 2.9865 4.38602 3.6265C3.77268 4.19984 3.34602 4.8265 3.07935 5.5065C2.79935 6.19984 2.66602 6.93317 2.66602 7.71984C2.66602 8.95984 2.95935 10.3065 3.54602 11.6932C4.14602 13.1065 4.98602 14.5732 6.05268 16.0398C7.11935 17.5065 8.33268 18.9332 9.66602 20.2798C10.9993 21.5998 12.4393 22.8265 13.9193 23.9065C15.3593 24.9598 16.8393 25.8132 18.306 26.4265C20.586 27.3998 22.7194 27.6265 24.4794 26.8932C25.1594 26.6132 25.7593 26.1865 26.306 25.5732C26.6127 25.2398 26.8527 24.8798 27.0527 24.4532C27.2127 24.1198 27.2927 23.7732 27.2927 23.4265C27.2927 23.2132 27.2527 22.9998 27.146 22.7598C27.106 22.6798 27.026 22.5332 26.7727 22.3598L22.346 19.2132C22.0793 19.0265 21.8393 18.8932 21.6127 18.7998C21.3193 18.6798 21.1993 18.5598 20.746 18.8398C20.4793 18.9732 20.2393 19.1732 19.9727 19.4398L18.9593 20.4398C18.4393 20.9465 17.6394 21.0665 17.026 20.8398L16.666 20.6798C16.1193 20.3865 15.4793 19.9332 14.7727 19.3332C14.1327 18.7865 13.4393 18.1465 12.5993 17.3198C11.946 16.6532 11.2927 15.9465 10.6127 15.1598C9.98602 14.4265 9.53268 13.7998 9.25268 13.2798L9.09268 12.8798C9.01268 12.5732 8.98602 12.3998 8.98602 12.2132C8.98602 11.7332 9.15935 11.3065 9.49268 10.9732L10.4927 9.93317C10.7593 9.6665 10.9593 9.41317 11.0927 9.1865C11.1993 9.01317 11.2393 8.8665 11.2393 8.73317C11.2393 8.6265 11.1993 8.4665 11.1327 8.3065C11.0393 8.09317 10.8927 7.85317 10.706 7.59984L7.61268 3.2265C7.47935 3.03984 7.31935 2.9065 7.11935 2.81317C6.90602 2.71984 6.67935 2.6665 6.45268 2.6665ZM17.5993 19.0132L17.386 19.9198L17.746 18.9865C17.6794 18.9732 17.626 18.9865 17.5993 19.0132Z" fill="#1E1E1E"/>
</svg>
